<svg version="1.1" id="Layer_1" xmlns="http://www.w3.org/2000/svg" xmlns:xlink="http://www.w3.org/1999/xlink" x="0px" y="0px"
	 width="100%" viewBox="0 0 1000 1000" enable-background="new 0 0 1000 1000" xml:space="preserve">
<path fill="#000000" opacity="1.000000" stroke="none" 
	d="
M683.000000,1001.000000 
	C456.833344,1001.000000 231.166672,1000.989136 5.500043,1001.093445 
	C1.750795,1001.095215 0.905755,1000.249084 0.906896,996.500000 
	C1.007416,666.166687 1.007416,335.833344 0.906896,5.500028 
	C0.905755,1.750898 1.750897,0.905753 5.500028,0.906894 
	C335.833344,1.007430 666.166687,1.007430 996.500000,0.906894 
	C1000.249084,0.905753 1001.094238,1.750897 1001.093140,5.500028 
	C1000.992615,335.833344 1000.992615,666.166687 1001.093140,996.500000 
	C1001.094299,1000.249084 1000.249634,1001.098938 996.499878,1001.094727 
	C892.166687,1000.976685 787.833313,1001.000000 683.000000,1001.000000 
z"/>
<path fill="#E20629" opacity="1.000000" stroke="none" 
	d="
M826.255005,174.245209 
	C815.104797,185.454483 803.872681,196.100784 793.750916,207.798630 
	C779.527222,224.237106 765.111633,240.504730 751.095215,257.131195 
	C739.007812,271.469482 727.127869,285.976624 715.191833,300.434601 
	C705.276428,312.445038 695.871887,324.879730 686.329529,337.195099 
	C671.481689,356.357758 656.927612,375.745056 642.979126,395.572266 
	C628.106079,416.713806 613.520508,438.077271 600.444885,460.376038 
	C593.173157,472.776978 586.351746,485.463318 579.997620,498.420715 
	C568.238342,522.400330 555.434753,545.832703 538.104797,566.449280 
	C527.091125,579.551697 515.041748,591.468384 499.780426,599.520020 
	C491.532654,603.871338 482.654694,606.771301 473.314697,608.010986 
	C467.731293,608.752136 462.100006,608.688538 456.515472,609.114502 
	C439.708130,610.396362 425.204498,604.819275 411.824524,595.306213 
	C392.179413,581.338623 375.264343,564.460083 359.027924,546.741272 
	C349.545776,536.393311 340.477295,525.716492 331.545929,514.925415 
	C322.778809,504.332764 314.870605,493.063354 306.900818,481.844666 
	C290.309357,458.489777 273.375763,435.378235 256.660980,412.110535 
	C245.109009,396.029724 233.631363,379.894745 222.223373,363.711517 
	C209.395340,345.513855 194.732864,328.638428 183.112991,309.577026 
	C178.353500,301.769562 173.605347,293.921112 171.402374,284.884460 
	C170.560516,281.431213 170.895615,277.908905 171.136505,274.458069 
	C171.291992,272.230591 173.248413,270.914612 175.308838,270.013702 
	C177.490799,269.059662 179.757401,268.984589 182.082718,268.985474 
	C233.077667,269.004547 284.072662,269.031708 335.067413,268.926636 
	C338.355225,268.919861 340.751007,269.770538 342.815826,272.275330 
	C350.972382,282.169708 359.145264,292.051971 367.431915,301.837250 
	C375.735901,311.642975 384.238892,321.280090 392.551086,331.078949 
	C400.845886,340.857330 408.932007,350.813080 417.254883,360.567078 
	C428.206818,373.402130 444.239349,376.953094 459.425995,369.028137 
	C466.506073,365.333527 472.520935,360.293549 478.059143,354.522308 
	C491.874054,340.126129 506.027710,326.054352 519.805298,311.623138 
	C534.447144,296.286621 548.836121,280.708130 563.291687,265.194458 
	C576.044128,251.508575 588.790344,237.816071 601.436829,224.032379 
	C610.594055,214.051636 619.702087,204.020004 628.588928,193.799622 
	C632.080688,189.783936 636.618347,187.476791 641.043091,185.072479 
	C668.688904,170.050095 696.836975,156.114624 727.078369,146.931519 
	C737.166931,143.867996 747.339661,141.757202 758.032471,141.910492 
	C779.192688,142.213791 800.360352,141.983826 821.524902,142.007751 
	C830.691650,142.018112 837.817627,152.165207 835.095703,161.008698 
	C833.488586,166.230072 830.569092,170.459427 826.255005,174.245209 
z"/>
<path fill="#E20629" opacity="1.000000" stroke="none" 
	d="
M818.000000,447.027161 
	C819.865967,482.591431 818.958435,517.694519 818.886292,552.781555 
	C818.844727,572.983643 817.732483,593.186157 816.941040,613.382141 
	C816.769104,617.769653 813.966675,621.352966 811.911682,625.010742 
	C804.146423,638.832581 795.294617,651.757751 781.771912,660.846985 
	C775.436890,665.105103 768.434387,667.370361 761.123413,667.783386 
	C755.022705,668.128052 748.930359,668.746155 742.837219,669.132141 
	C728.236084,670.056946 713.580200,669.153625 699.052307,670.242065 
	C686.746765,671.163940 674.479736,671.169678 662.241211,670.827087 
	C648.104309,670.431396 637.334412,664.518066 634.423462,649.484314 
	C632.990479,642.083374 633.633911,634.374939 635.520203,626.865784 
	C640.316284,607.773315 649.715576,590.666626 658.361389,573.233643 
	C668.418091,552.955872 678.480896,532.677185 689.576172,512.939087 
	C693.340149,506.242981 697.297546,499.647705 701.383484,493.142578 
	C706.303528,485.309265 708.835632,476.503204 712.053894,467.974213 
	C722.250244,440.951904 731.834473,413.679504 742.800598,386.974060 
	C749.135010,371.548157 758.013062,357.175873 769.148560,344.578979 
	C773.961365,339.134583 779.404114,333.816925 787.769775,333.957794 
	C792.640137,334.039856 796.278503,336.012817 798.991333,339.955078 
	C805.359009,349.208069 807.826477,359.854218 810.006653,370.611847 
	C813.239136,386.562317 815.040710,402.669464 816.148010,418.909973 
	C816.775635,428.115448 817.517944,437.317596 818.000000,447.027161 
z"/>
<path fill="#E20629" opacity="1.000000" stroke="none" 
	d="
M313.938416,674.000000 
	C280.965881,674.000000 248.481155,673.886536 215.998795,674.112366 
	C210.623550,674.149719 206.196472,673.199890 202.060333,669.616394 
	C191.745941,660.680237 181.219589,651.987488 170.725266,643.260864 
	C167.990524,640.986755 166.883636,638.431458 166.900696,634.704407 
	C167.066040,598.556335 166.504074,562.397034 167.250732,526.263672 
	C167.538544,512.335693 167.049500,498.343292 168.169724,484.476257 
	C169.470795,468.370483 168.328201,451.930664 174.736420,436.383606 
	C179.269806,425.385101 185.362915,415.674744 193.979736,407.551239 
	C197.454147,404.275665 201.782166,404.428009 205.291656,407.827576 
	C210.408478,412.784210 212.725006,419.318146 215.017807,425.807770 
	C222.067139,445.760315 226.206284,466.381592 229.045670,487.302490 
	C229.732758,492.365051 233.327911,496.054718 235.821686,500.196106 
	C249.401154,522.747070 262.882019,545.368164 277.010101,567.574890 
	C290.874756,589.367615 305.427063,610.724426 319.814026,632.181091 
	C321.453430,634.626099 324.113159,636.360840 326.059021,638.631226 
	C334.174927,648.100464 332.393616,664.226868 323.884949,672.934265 
	C321.416870,675.459961 317.592590,673.529358 313.938416,674.000000 
z"/>
<path fill="#E20629" opacity="1.000000" stroke="none" 
	d="
M192.000137,711.157104 
	C191.383636,707.034973 192.704742,705.790649 196.558456,705.904175 
	C206.379059,706.193359 216.214417,706.058228 226.042557,705.960449 
	C228.560181,705.935425 230.144318,706.452271 231.613922,708.899963 
	C235.063309,714.645203 239.130051,720.016785 242.865631,725.594055 
	C246.490814,731.006531 250.014496,736.487061 253.927170,742.463806 
	C261.705658,730.909973 269.364014,719.798645 276.681580,708.467224 
	C278.367828,705.856018 280.091034,704.903442 283.049866,704.950867 
	C291.710571,705.089844 300.376923,705.105469 309.036804,704.942688 
	C311.960846,704.887756 313.083313,705.543213 313.071045,708.768188 
	C312.951019,740.254150 312.951263,771.741028 313.070770,803.227051 
	C313.083008,806.445129 311.971954,807.100647 309.041901,807.057739 
	C298.715210,806.906738 288.382202,806.864990 278.057617,807.075806 
	C274.691956,807.144470 273.898590,806.005615 273.934570,802.825562 
	C274.089203,789.166504 274.021301,775.504578 273.962494,761.844116 
	C273.957306,760.636047 274.711426,758.993958 273.190002,758.252380 
	C271.052673,757.210815 270.802917,759.530640 270.041992,760.513000 
	C265.629364,766.210144 261.148468,771.876648 257.139740,777.854675 
	C255.238785,780.689392 254.287537,780.995911 251.851395,778.458069 
	C245.880737,772.238342 239.654724,766.266113 234.102890,759.647522 
	C233.523926,758.957336 232.942276,757.933716 231.000000,758.474731 
	C231.000000,763.667847 231.000107,769.066528 230.999969,774.465210 
	C230.999756,783.961121 230.854935,793.460388 231.076370,802.951111 
	C231.155273,806.332214 229.985001,807.120239 226.816177,807.065063 
	C216.656952,806.887939 206.489059,806.843933 196.332397,807.083557 
	C192.766571,807.167664 191.910172,806.053528 191.925003,802.600586 
	C192.055283,772.280945 192.000198,741.960449 192.000137,711.157104 
z"/>
<path fill="#E20629" opacity="1.000000" stroke="none" 
	d="
M685.000000,755.120361 
	C684.999634,759.436951 684.818665,763.281311 685.056274,767.099731 
	C685.245483,770.140198 684.298645,771.153931 681.162231,771.070190 
	C673.168335,770.856628 665.150696,771.285095 657.170715,770.889404 
	C652.682678,770.666870 653.014160,773.067932 652.941101,776.057922 
	C652.863220,779.244995 652.971924,781.296021 657.288818,781.112122 
	C666.105713,780.736572 674.952271,781.116760 683.781555,780.937927 
	C686.902954,780.874695 688.244690,781.575806 688.074585,785.019104 
	C687.795410,790.671753 687.867310,796.352539 688.053772,802.012817 
	C688.149170,804.908691 687.510864,806.097839 684.252197,806.073730 
	C664.087524,805.924561 643.920715,805.925171 623.756042,806.073425 
	C620.508789,806.097290 619.968689,804.916931 619.940735,802.023499 
	C619.714417,778.584656 619.306641,755.147644 619.015198,731.709290 
	C618.918579,723.938782 619.000000,716.165955 619.000000,708.000000 
	C630.525391,708.000000 642.503113,707.999878 654.480896,708.000061 
	C663.647156,708.000183 672.814758,708.089172 681.978882,707.948303 
	C684.818848,707.904602 686.216675,708.395203 686.074341,711.715515 
	C685.810364,717.870605 685.821228,724.052246 686.071594,730.208435 
	C686.202271,733.421997 685.010437,734.124023 682.054565,734.059326 
	C674.058838,733.883972 666.051880,734.160767 658.059265,733.924744 
	C654.689819,733.825195 653.928040,734.996643 653.925476,738.174316 
	C653.916687,749.000122 653.795288,749.000000 664.405151,749.000000 
	C669.404907,749.000000 674.432495,749.326843 679.396423,748.904968 
	C684.037598,748.510376 685.793640,750.118713 685.000000,755.120361 
z"/>
<path fill="#E20629" opacity="1.000000" stroke="none" 
	d="
M561.000000,713.039062 
	C561.000061,733.344055 561.135864,753.157593 560.892761,772.966492 
	C560.840210,777.250183 562.134033,778.257751 566.194275,778.094482 
	C574.172668,777.773438 582.177002,778.142639 590.162659,777.930298 
	C593.290466,777.847168 594.139893,778.856750 594.064148,781.891602 
	C593.869019,789.711548 593.892639,797.541870 594.054565,805.363342 
	C594.112610,808.167480 593.268494,809.068115 590.409302,809.054932 
	C568.100525,808.951660 545.790955,808.944519 523.482300,809.059937 
	C520.473206,809.075500 519.949585,807.912476 519.955261,805.255981 
	C520.025696,772.458313 520.040710,739.660278 519.936340,706.862732 
	C519.926575,703.790649 520.786255,702.880554 523.863953,702.932800 
	C534.349548,703.110962 544.846680,703.216919 555.325623,702.897827 
	C559.776978,702.762207 561.828857,703.860596 561.033325,708.556030 
	C560.813965,709.850769 561.000000,711.214111 561.000000,713.039062 
z"/>
<path fill="#E20629" opacity="1.000000" stroke="none" 
	d="
M424.327026,808.892578 
	C422.291504,807.296204 423.044159,805.349487 423.038940,803.615845 
	C422.978241,783.458740 423.115570,763.300537 422.956329,743.144531 
	C422.862030,731.209412 422.447083,719.272766 421.931213,707.347412 
	C421.777588,703.795959 422.904785,702.851807 426.386383,702.920471 
	C437.376984,703.137390 448.378204,703.161377 459.367371,702.910767 
	C463.090759,702.825867 464.122314,703.830078 464.090302,707.599243 
	C463.904968,729.420776 464.088104,751.245422 463.916840,773.067200 
	C463.886963,776.872009 464.716949,778.285095 468.801208,778.099731 
	C476.448517,777.752808 484.126038,778.129333 491.784363,777.938232 
	C494.908264,777.860229 496.191010,778.583435 496.077850,782.018005 
	C495.825623,789.672729 495.821442,797.347595 496.079132,805.002014 
	C496.195831,808.468750 494.852814,809.074707 491.765564,809.057983 
	C469.443359,808.936951 447.120331,808.976257 424.327026,808.892578 
z"/>
<path fill="#E20629" opacity="1.000000" stroke="none" 
	d="
M740.000000,786.000000 
	C739.999939,770.005798 739.829773,754.508484 740.109558,739.019287 
	C740.187561,734.700500 738.825562,733.642517 734.782288,733.915771 
	C729.641113,734.263245 724.457458,733.936890 719.294250,734.025879 
	C717.153442,734.062805 716.321655,733.594116 715.873962,731.117981 
	C714.589478,724.013855 715.268250,716.898621 714.965698,709.796936 
	C714.854553,707.187134 715.373779,705.928589 718.435364,705.940918 
	C745.091675,706.048035 771.748718,706.041199 798.405151,705.945618 
	C801.263367,705.935364 802.123474,706.827271 802.054504,709.637207 
	C801.882996,716.630371 801.899292,723.632690 802.047241,730.626892 
	C802.102356,733.237000 801.271606,734.130676 798.639709,734.047302 
	C793.313721,733.878540 787.964661,734.234497 782.652039,733.919678 
	C778.943481,733.699890 777.874817,734.786316 777.908081,738.583252 
	C778.097961,760.240173 777.884583,781.900818 778.099060,803.557251 
	C778.141113,807.800354 777.311462,809.333191 772.706970,809.123291 
	C763.562683,808.706360 754.379517,808.796570 745.225891,809.093506 
	C741.208618,809.223816 739.599670,808.343872 739.901001,803.986633 
	C740.302307,798.183167 740.000061,792.331177 740.000000,786.000000 
z"/>
<path fill="#E20629" opacity="1.000000" stroke="none" 
	d="
M388.000000,786.999634 
	C387.999146,792.828247 387.911865,798.158997 388.036499,803.484802 
	C388.093018,805.901062 387.588531,807.083496 384.785858,807.052002 
	C372.964233,806.919373 361.139557,806.925415 349.317749,807.049988 
	C346.637329,807.078186 345.760376,806.143188 345.970337,803.586670 
	C346.133362,801.601868 345.956635,799.591736 346.006714,797.594727 
	C346.744507,768.168884 344.557098,738.779114 344.876923,709.353088 
	C344.924835,704.943420 345.967316,703.751343 350.373383,703.887939 
	C361.353333,704.228394 372.354279,704.154175 383.339539,703.913879 
	C387.011536,703.833557 388.118042,704.751404 388.092072,708.567627 
	C387.915497,734.544067 387.999878,760.522156 388.000000,786.999634 
z"/>
</svg>